<svg version="1.1" id="Layer_1" xmlns="http://www.w3.org/2000/svg" xmlns:xlink="http://www.w3.org/1999/xlink" x="0px" y="0px"
	 width="100%" viewBox="0 0 800 600" enable-background="new 0 0 800 600" xml:space="preserve">
<path fill="#FCF3F1" opacity="1.000000" stroke="none" 
	d="
M437.000000,601.000000 
	C291.359253,601.000000 146.218475,601.000000 1.038859,601.000000 
	C1.038859,401.061615 1.038859,201.123199 1.038859,1.092396 
	C267.557434,1.092396 534.114929,1.092396 800.836182,1.092396 
	C800.836182,200.999893 800.836182,400.999939 800.836182,601.000000 
	C679.789795,601.000000 558.644897,601.000000 437.000000,601.000000 
M448.793945,373.926880 
	C449.166840,372.966339 449.539734,372.005829 450.047577,370.361267 
	C450.000824,369.901123 449.954041,369.440948 450.000336,368.065582 
	C450.000336,364.454132 450.000336,360.842682 450.000336,357.231232 
	C449.378906,357.234741 448.757507,357.238251 448.136078,357.241760 
	C448.136078,361.159363 448.136078,365.076935 447.427429,368.908661 
	C444.915344,365.019775 442.403259,361.130890 439.059174,357.118042 
	C438.590698,362.626373 438.122223,368.134735 437.653717,373.643066 
	C438.382782,373.676788 439.111877,373.710510 439.840942,373.744263 
	C439.840942,369.815704 439.840942,365.887146 440.546631,362.084442 
	C443.062592,365.970367 445.578552,369.856262 448.793945,373.926880 
M353.504028,369.320923 
	C353.341461,369.221558 353.178925,369.122192 353.022186,368.182709 
	C352.218750,364.407959 351.415283,360.633240 350.611847,356.858490 
	C349.928528,357.009491 349.245239,357.160461 348.561951,357.311462 
	C349.618439,362.483521 350.632233,367.665863 351.865143,372.795532 
	C351.923096,373.036591 354.479553,373.243805 354.908722,372.702545 
	C355.642242,371.777557 355.611725,370.246735 356.143463,368.403076 
	C356.652100,366.656250 357.160767,364.909454 357.669403,363.162628 
	C359.503021,366.381256 360.163666,369.286957 361.071259,372.113403 
	C361.311981,372.863037 362.239899,373.504608 363.003906,373.910278 
	C363.258484,374.045471 364.344879,373.369354 364.442902,372.928802 
	C365.595367,367.749695 366.632050,362.544800 367.699249,357.346680 
	C367.098114,357.177643 366.496979,357.008575 365.895874,356.839508 
	C364.916504,360.458496 363.937164,364.077454 362.625366,368.924957 
	C361.150726,363.960419 360.078400,360.350281 359.006073,356.740112 
	C358.390656,356.775940 357.775269,356.811768 357.159851,356.847565 
	C356.450043,359.932861 355.740234,363.018127 354.691864,366.687378 
	C354.486267,367.557068 354.280670,368.426788 353.504028,369.320923 
M543.564453,360.506989 
	C542.635986,362.838165 541.707520,365.169342 540.375793,368.512878 
	C538.916321,364.439758 538.019104,361.421021 536.685242,358.609436 
	C536.387268,357.981415 534.556641,358.080505 533.431702,357.844849 
	C533.431702,363.216858 533.431702,368.588867 533.431702,373.960876 
	C534.076477,373.970612 534.721313,373.980347 535.366089,373.990051 
	C535.634521,370.966919 535.903015,367.943787 536.255981,363.968811 
	C537.693970,367.326874 538.752197,369.798157 540.311584,373.439728 
	C542.077087,369.729645 543.276001,367.210083 544.474976,364.690521 
	C545.195374,367.405426 545.109802,369.890320 545.263245,372.360413 
	C545.296265,372.891937 546.192017,373.369843 546.690369,373.872467 
	C546.963867,373.223267 547.237366,372.574066 547.712891,371.023376 
	C547.739380,367.448883 547.870728,363.870209 547.729309,360.302368 
	C547.685852,359.206787 546.895752,358.140808 546.447510,357.061279 
	C545.623169,358.020935 544.798889,358.980591 543.564453,360.506989 
M471.253967,215.717667 
	C455.197479,222.164581 440.935364,218.759155 428.097717,207.784271 
	C421.519165,202.160263 414.606964,196.848938 408.562103,190.692703 
	C390.474792,172.272186 372.684814,153.557938 354.899780,134.843353 
	C348.751984,128.374237 341.907806,124.309837 332.539764,124.890244 
	C318.259460,125.775002 308.944855,133.724274 303.337036,145.882965 
	C297.863922,157.749603 300.136169,169.324860 309.282745,178.635239 
	C334.381805,204.183792 359.667206,229.554123 385.176758,254.692688 
	C398.247803,267.573669 417.191315,268.863831 430.899933,256.740265 
	C445.326263,243.981934 458.356110,229.644516 472.443420,215.845108 
	C472.351959,215.652481 472.260498,215.459854 472.169067,215.267227 
	C472.118042,215.515503 472.066986,215.763779 471.253967,215.717667 
M403.187744,285.031372 
	C392.544159,271.009613 373.082642,269.662079 359.742889,282.183228 
	C351.661591,273.056549 342.068085,271.366913 331.241211,276.783295 
	C326.259247,270.802582 320.586700,270.341553 316.834625,275.783112 
	C315.462280,277.773407 314.474762,280.228912 314.016418,282.608002 
	C313.061066,287.566498 312.575500,292.615540 311.882355,297.734619 
	C306.557800,294.254303 301.453003,290.917633 296.068451,287.398071 
	C297.810272,286.565674 299.428070,285.862701 300.981384,285.038208 
	C308.032074,281.295624 314.132385,276.584045 317.217957,268.856415 
	C319.749664,262.515930 318.181915,255.043884 313.583588,251.531357 
	C309.188873,248.174286 302.972961,248.131012 297.536560,252.943176 
	C292.247192,257.625153 287.955444,263.442535 283.299713,268.825470 
	C282.231598,270.060455 281.466614,271.557587 280.440338,273.119415 
	C279.326782,266.837372 278.631287,261.227539 277.272034,255.783478 
	C276.200989,251.493683 272.906433,249.285095 268.424286,248.996628 
	C263.717102,248.693665 260.277985,250.822311 258.309753,254.893173 
	C257.102356,257.390381 256.077454,260.246490 255.995605,262.972198 
	C255.551010,277.777832 255.354965,292.592621 255.256348,307.405426 
	C255.238892,310.024414 255.871506,312.708496 256.576721,315.259460 
	C258.330048,321.601532 261.931763,324.651062 267.274597,324.661438 
	C272.887146,324.672333 276.564911,321.518860 278.044281,314.843170 
	C278.960815,310.707092 279.312347,306.445770 279.933716,302.127960 
	C284.454956,307.819641 288.343475,313.654297 293.166931,318.571930 
	C300.863403,326.418610 307.542816,326.636658 316.651245,320.370148 
	C319.097870,323.909363 322.465698,325.371429 326.607483,324.082825 
	C331.108276,322.682556 331.543793,318.620453 331.941833,314.784393 
	C332.336151,310.984436 332.203400,307.118317 332.765839,303.350433 
	C333.352386,299.420898 334.648926,295.669983 339.818604,295.987671 
	C344.637268,296.283783 345.564667,299.992889 346.031006,303.708252 
	C346.590149,308.162750 346.203827,312.807678 347.297852,317.097015 
	C347.977570,319.761841 350.247833,323.289246 352.521362,323.945618 
	C355.132782,324.699615 358.567200,322.806000 361.575012,321.845886 
	C362.356567,321.596375 362.880402,320.539429 363.490509,319.887665 
	C371.982391,325.658997 380.789581,325.788208 389.993134,322.927368 
	C391.360992,322.502167 393.208405,322.471466 394.472504,323.049164 
	C402.073822,326.522797 406.079620,324.673828 408.501282,315.935883 
	C414.228363,321.441345 420.964233,324.530853 428.752899,324.523346 
	C436.367950,324.515991 443.431610,322.451996 449.166656,316.689117 
	C451.402374,322.028229 454.758545,324.909058 460.165649,324.252258 
	C465.778198,323.570465 466.897675,319.008850 467.990570,314.555573 
	C468.188263,313.750092 468.102234,312.841888 468.431793,312.109131 
	C469.004639,310.835541 469.799408,309.661774 470.501160,308.446167 
	C471.607849,309.213837 472.917450,309.802185 473.783630,310.782379 
	C476.533447,313.894196 478.918182,317.347351 481.812378,320.308563 
	C486.329407,324.930115 491.250275,325.679932 495.210205,322.807800 
	C498.605225,320.345428 499.162140,315.949768 496.274353,310.069916 
	C494.178223,305.802032 491.532928,301.803864 489.332672,298.028839 
	C492.116150,295.011871 494.924500,292.390778 497.214142,289.375824 
	C499.883179,285.861298 499.883331,281.883575 497.487762,278.161133 
	C495.013611,274.316650 491.171997,273.184357 486.991821,274.326569 
	C483.666901,275.235138 480.514679,276.849884 477.375366,278.339813 
	C474.947052,279.492279 472.657410,280.936890 469.606445,282.642822 
	C469.606445,279.474396 469.739655,277.316376 469.581177,275.180023 
	C469.126617,269.052429 468.931061,262.869446 467.904816,256.832153 
	C467.123779,252.237106 464.167725,249.058929 458.956940,248.999573 
	C453.950043,248.942566 450.750641,251.570572 449.234833,256.100708 
	C448.187164,259.231750 447.452148,262.514954 447.006927,265.788544 
	C446.388428,270.336334 446.172333,274.938904 445.776306,279.608307 
	C427.141846,270.493713 420.813141,271.527618 404.948608,286.050995 
	C404.777435,286.207672 404.045288,285.751556 403.187744,285.031372 
M534.182739,324.413422 
	C544.399963,325.314423 554.068848,324.336365 561.751160,316.075134 
	C562.302734,317.179993 562.724304,318.077759 563.191345,318.951172 
	C565.487610,323.245422 569.033386,325.102325 573.899963,324.548645 
	C579.000061,323.968384 580.873596,320.479675 581.507996,316.045319 
	C581.907043,313.256287 581.723938,310.385468 582.098145,307.590973 
	C582.536621,304.316284 582.908813,300.933319 584.091187,297.902039 
	C584.632874,296.513306 587.071350,295.037201 588.595886,295.092163 
	C590.113953,295.146912 592.057007,296.783051 592.912842,298.250977 
	C593.855408,299.867645 593.915771,302.068756 594.105347,304.039795 
	C594.503418,308.177582 594.505615,312.363892 595.087463,316.471161 
	C595.983459,322.796082 601.722778,326.452698 607.146545,323.593964 
	C610.028625,322.074860 611.846741,318.537018 614.192078,315.856750 
	C627.532715,328.639984 641.973328,327.305878 656.708435,316.581421 
	C656.906982,319.731964 656.910583,322.412842 657.288086,325.040009 
	C657.665161,327.664215 658.203979,330.306152 659.047424,332.813995 
	C660.900024,338.322571 664.135254,340.546234 668.943115,340.025970 
	C674.381165,339.437500 675.307190,335.221100 675.843689,331.038269 
	C676.236145,327.978302 675.920532,324.827545 675.920532,321.527802 
	C693.809509,327.404114 703.991699,324.865540 712.114990,312.870605 
	C718.167480,303.933472 717.305542,291.715057 709.676208,282.799042 
	C701.399719,273.126678 688.869080,271.061920 676.448608,277.587891 
	C673.588867,273.804779 669.155640,272.366058 665.421753,274.399933 
	C662.024597,276.250366 659.846252,280.338257 657.012817,283.574371 
	C651.426880,276.685303 643.706116,273.430084 634.192139,273.796936 
	C624.530518,274.169434 617.151611,278.437195 611.340149,286.410736 
	C604.632141,274.528748 594.651184,271.908020 582.685059,275.071960 
	C582.113403,268.823639 581.920166,262.822235 580.914856,256.960175 
	C580.119446,252.322098 577.076660,249.290665 571.980957,249.009186 
	C566.964172,248.732086 563.573608,251.146133 562.088928,255.730865 
	C560.974243,259.173065 560.429932,262.834717 559.960632,266.441498 
	C559.479797,270.136841 559.399414,273.884247 559.119141,277.966370 
	C557.217896,277.155090 555.890442,276.483154 554.495483,276.010254 
	C544.554993,272.640717 534.762756,272.722565 525.705505,278.422180 
	C515.656006,284.746216 515.989746,295.497223 526.202087,301.524933 
	C528.481567,302.870331 531.059509,303.707764 533.350098,305.037445 
	C534.743835,305.846527 535.850525,307.150085 537.086182,308.231476 
	C536.765381,308.832489 536.444580,309.433472 536.123779,310.034454 
	C534.273865,309.332947 532.331909,308.806824 530.592957,307.893951 
	C526.769653,305.886932 521.254333,306.766785 519.323425,309.872620 
	C517.242249,313.220184 518.168030,317.903381 522.246155,320.230560 
	C525.609131,322.149658 529.615112,322.941986 534.182739,324.413422 
M370.675903,391.788300 
	C378.973328,398.974915 387.762909,405.673584 395.468994,413.446442 
	C413.281006,431.412659 430.377258,450.089142 448.217133,468.026672 
	C452.129486,471.960419 457.619507,475.577454 462.922424,476.634674 
	C477.291473,479.499359 490.992462,471.451172 498.032471,457.593597 
	C504.237244,445.380188 501.844147,432.537567 491.076691,421.608185 
	C478.459045,408.800751 465.744415,396.087799 452.952515,383.454651 
	C451.683563,382.201416 449.639099,381.257385 447.862152,381.076263 
	C439.822113,380.256439 431.749481,379.754089 423.685974,379.173035 
	C423.234253,379.140503 422.758667,379.423370 422.295715,379.564453 
	C412.372131,382.587708 409.240997,380.200806 408.899231,369.869568 
	C408.824738,367.617493 407.413818,365.409576 406.618378,363.181335 
	C405.951782,363.378265 405.285156,363.575195 404.618561,363.772125 
	C404.883545,365.613373 404.914185,367.526764 405.454865,369.283142 
	C407.596130,376.239258 404.385681,381.038483 397.149139,380.937195 
	C387.712250,380.805145 378.085205,378.998138 368.899200,380.351044 
	C359.088715,381.795868 349.528961,378.959198 339.752869,380.794739 
	C335.157166,381.657654 331.838287,382.626068 328.865784,387.660583 
	C344.061615,380.259247 357.492828,382.218170 370.675903,391.788300 
M171.509003,301.374969 
	C171.968262,306.668610 172.146103,312.006348 172.967087,317.243286 
	C173.764877,322.332092 176.536926,324.028320 181.696793,324.188690 
	C187.456299,324.367676 189.025711,319.939850 191.241348,315.692474 
	C200.532364,324.676849 211.429474,326.453613 223.260269,323.518585 
	C228.553879,322.205292 231.560928,318.538208 230.369492,315.459778 
	C228.525589,310.695587 224.650208,312.129028 221.015594,312.640991 
	C216.151001,313.326233 211.270767,313.667847 206.786041,309.011200 
	C211.417099,309.011200 215.222153,309.257385 218.984634,308.961761 
	C227.795639,308.269440 233.638519,304.022522 235.346130,297.432343 
	C237.141434,290.503693 233.835358,282.809174 227.021744,278.058289 
	C217.905121,271.701599 204.087448,272.470917 195.446198,279.972046 
	C193.177597,281.941284 191.269043,284.325287 189.001022,286.724182 
	C182.665588,274.524414 172.545670,271.962952 159.856125,275.177032 
	C159.856125,272.071320 159.972046,269.426575 159.824631,266.796631 
	C159.666580,263.977142 159.412399,261.145355 158.931808,258.365326 
	C157.900787,252.401169 154.700577,249.288834 149.608658,249.020370 
	C144.323227,248.741699 140.792587,251.253296 139.194962,257.100555 
	C138.069733,261.218903 137.567780,265.507568 136.751892,269.912659 
	C132.420502,269.519531 128.227631,269.138947 124.255684,268.778442 
	C123.815254,264.679779 123.632050,261.011322 122.981796,257.427612 
	C122.194283,253.087387 120.252762,249.500977 115.189888,249.010422 
	C110.407997,248.547089 106.683090,250.882523 105.044418,256.037048 
	C103.752655,260.100311 103.160912,264.386108 102.247948,268.620850 
	C98.655403,269.396667 94.856812,269.905090 91.275017,271.076416 
	C87.541130,272.297516 85.275398,275.583557 86.239578,279.221680 
	C86.919334,281.786560 89.410408,284.609955 91.836075,285.789917 
	C94.988991,287.323669 98.879097,287.341980 102.371956,287.997559 
	C102.910851,294.786072 103.075958,301.449707 104.049164,307.993103 
	C105.334595,316.635712 110.826279,322.074554 119.195511,323.900696 
	C127.003319,325.604370 134.637375,325.353149 139.326981,316.842621 
	C139.852570,317.527100 140.329681,317.994873 140.625519,318.557922 
	C143.065689,323.202179 146.669449,325.374146 152.050735,324.391510 
	C157.705383,323.358948 158.809509,319.189972 159.278732,314.475739 
	C159.738724,309.853973 160.045380,305.210663 160.701431,300.617065 
	C161.106705,297.779449 161.953674,294.968597 165.716568,294.834290 
	C169.714157,294.691589 170.724533,297.380707 171.509003,301.374969 
M530.067505,204.421188 
	C526.938721,206.875305 523.544434,209.059372 520.726562,211.829697 
	C507.673859,224.662201 495.230713,238.157181 481.640503,250.382462 
	C474.903564,256.442749 475.634735,262.596985 476.815582,270.152130 
	C478.286713,269.638123 479.351807,269.286530 480.402283,268.895691 
	C490.150299,265.268921 498.082153,266.934052 502.904480,273.627289 
	C507.944305,280.622437 507.105164,288.720856 500.555237,296.877411 
	C499.867432,297.733887 498.733429,299.127289 499.006042,299.717621 
	C501.107605,304.268524 503.505249,308.682770 506.551239,314.569977 
	C508.398956,312.045044 509.435638,310.523163 510.580780,309.087830 
	C512.333557,306.890900 514.161133,304.753693 515.889099,302.672821 
	C507.925232,289.295013 511.022064,278.155823 524.527527,270.867859 
	C533.322876,266.121613 542.718262,266.361389 552.495972,267.767975 
	C552.680298,266.379547 552.881592,265.102997 553.015076,263.819397 
	C554.585632,248.715454 559.018433,244.176605 573.991150,241.907867 
	C575.104004,241.739258 576.687500,239.981873 576.829041,238.814743 
	C578.470093,225.281784 573.022583,214.799194 562.220337,207.011688 
	C552.387451,199.922989 541.824768,198.661819 530.067505,204.421188 
M341.947968,398.360565 
	C321.864746,396.428314 303.306061,410.613678 301.083557,429.595337 
	C298.520203,451.487549 312.141296,469.079498 334.583588,471.627686 
	C353.260986,473.748413 371.842651,460.631989 374.595367,438.397919 
	C376.898102,419.798065 362.838165,401.774963 341.947968,398.360565 
M431.878235,149.446869 
	C422.371338,167.887085 428.846619,189.917175 446.535522,199.313583 
	C465.016479,209.130737 486.858917,202.659210 496.752502,184.435104 
	C506.359650,166.738708 499.971161,144.700165 482.367554,134.810974 
	C464.654114,124.860069 442.537506,131.020309 431.878235,149.446869 
M227.536240,380.801300 
	C228.812347,382.944031 229.929520,385.202362 231.390076,387.210968 
	C241.599426,401.251038 260.756012,405.716888 273.720490,396.477692 
	C279.993439,392.007202 285.282013,386.155457 291.016296,380.929077 
	C280.082825,382.615509 269.550079,378.737823 259.109253,381.006226 
	C257.647095,381.323883 255.809067,380.594666 254.313446,379.955780 
	C248.247131,377.364502 246.865753,374.116486 248.723618,367.702393 
	C249.025665,366.659576 249.030197,365.436584 248.834061,364.358398 
	C247.266083,355.739258 252.409622,349.583038 261.066437,349.793976 
	C264.820984,349.885468 268.576141,350.007721 272.331177,350.014008 
	C287.638153,350.039673 302.945435,350.062439 318.251923,349.970398 
	C319.789490,349.961151 321.759155,349.632141 322.787201,348.664307 
	C330.044098,341.832611 337.107086,334.794983 344.057220,327.994080 
	C342.215912,324.740356 340.733246,322.120422 339.060303,319.164215 
	C338.654633,320.223480 338.538025,321.496246 337.842285,322.177795 
	C334.759796,325.197449 331.787384,330.082550 328.268311,330.560455 
	C319.279358,331.781158 309.996490,331.391174 300.881317,330.830353 
	C297.664093,330.632385 294.395905,328.371765 291.512329,326.497070 
	C288.901306,324.799469 286.782379,322.345001 284.216248,320.015259 
	C281.254608,325.184326 278.043976,329.804901 271.643829,331.191681 
	C265.507660,332.521271 260.224457,330.984009 255.115570,327.477325 
	C247.827057,334.513214 240.803253,341.365234 233.699661,348.133484 
	C224.078995,357.299927 222.623917,368.079834 227.536240,380.801300 
M235.401154,257.024780 
	C239.150665,261.243408 242.900162,265.462067 246.649673,269.680695 
	C247.096069,269.419739 247.542450,269.158783 247.988846,268.897797 
	C249.567078,257.749298 250.169235,245.623123 263.897095,242.407486 
	C273.778198,240.092911 280.784393,245.014740 284.469818,253.749985 
	C289.643097,250.266556 294.107727,246.357010 299.287567,244.061066 
	C303.360321,242.255859 304.215759,240.081711 303.968079,236.193802 
	C302.993103,220.887482 293.046997,207.382095 279.302734,202.999512 
	C263.278656,197.889954 248.278870,202.150467 237.971222,214.739288 
	C228.579285,226.209763 227.388428,242.933197 235.401154,257.024780 
M547.320557,380.953857 
	C532.570190,380.307159 517.834778,380.628998 502.796783,380.430847 
	C503.117096,382.127930 503.116821,382.646729 503.316803,383.071167 
	C503.669464,383.819702 504.092804,384.547607 504.575592,385.220245 
	C513.472351,397.615662 525.837402,402.969940 540.611572,400.787048 
	C554.785767,398.692841 565.032349,390.381287 569.795593,376.570343 
	C574.751770,362.200073 571.610962,349.197357 561.052673,338.392273 
	C557.938171,335.204956 553.500916,331.464905 549.548096,331.320862 
	C540.953247,331.007721 532.323181,332.250000 523.888062,329.435089 
	C523.208679,329.208405 522.235352,329.556885 521.494324,329.866852 
	C512.205383,333.752472 505.468719,340.211609 501.387878,349.433746 
	C507.589874,351.133514 513.369995,350.931244 519.453491,350.266052 
	C528.087036,349.321991 536.901306,350.074280 545.637634,350.011353 
	C551.929749,349.966064 554.274231,352.195587 554.364502,358.720306 
	C554.429077,363.382294 554.356567,368.045959 554.384033,372.708679 
	C554.409668,377.067139 552.792542,380.137451 547.320557,380.953857 
M484.634125,344.390747 
	C486.571594,340.223907 488.509064,336.057098 489.926544,333.008545 
	C484.092072,329.600342 478.444611,326.301392 472.774475,322.989166 
	C466.361633,332.276520 458.871155,333.981079 448.730957,328.331055 
	C447.531097,327.662445 445.636780,328.240143 444.064331,328.240143 
	C443.907837,328.813995 443.751343,329.387848 443.594879,329.961700 
	C449.805084,336.200470 455.691559,342.822021 462.388306,348.485504 
	C464.989990,350.685791 469.401215,351.432465 473.024994,351.534637 
	C476.296844,351.626892 479.618958,349.936401 483.373932,348.907379 
	C483.609161,347.990051 483.975586,346.560913 484.634125,344.390747 
M328.486206,242.013824 
	C324.264557,237.723846 320.042877,233.433884 315.821198,229.143906 
	C319.045319,237.345337 317.631348,246.743347 323.623596,253.714615 
	C324.871887,255.166855 324.946014,257.775848 325.209534,259.895477 
	C325.718048,263.985809 329.952637,267.918304 334.131592,267.917114 
	C340.884186,267.915192 347.636780,267.916595 354.652649,267.916595 
	C346.202728,259.553528 337.594482,251.033737 328.486206,242.013824 
M416.497009,348.024872 
	C402.264771,330.287323 373.198517,337.455872 366.788300,350.025452 
	C376.350952,350.025452 385.820129,349.874146 395.279785,350.107880 
	C398.568604,350.189178 401.833923,351.223328 405.464966,351.887207 
	C408.749664,350.956848 412.637390,349.855743 416.497009,348.024872 
M286.775177,370.164124 
	C287.209625,367.877869 287.689484,365.599060 288.064850,363.303162 
	C288.393677,361.292023 288.605194,359.261719 288.868500,357.239868 
	C288.335602,357.181580 287.802673,357.123291 287.269775,357.065002 
	C286.381439,360.864502 285.493103,364.663971 284.413666,369.280792 
	C282.980988,364.660583 281.761505,360.727936 280.542023,356.795258 
	C280.025177,356.795197 279.508331,356.795166 278.991486,356.795105 
	C277.837036,360.664856 276.682587,364.534637 275.212036,369.463959 
	C274.051483,364.507233 273.146240,360.640991 272.240997,356.774780 
	C271.555389,356.964874 270.869781,357.154968 270.184174,357.345032 
	C271.183258,362.308044 272.118408,367.285767 273.253693,372.217438 
	C273.415039,372.918335 274.548523,373.395447 275.232056,373.976135 
	C275.809998,373.257599 276.670258,372.623718 276.915558,371.805481 
	C277.826996,368.765198 278.536072,365.664276 279.684418,361.161804 
	C280.771942,365.465912 281.365356,368.385681 282.293365,371.194885 
	C282.644745,372.258484 283.767944,373.067169 284.539337,373.992035 
	C285.216339,372.978424 285.893311,371.964813 286.775177,370.164124 
M469.024872,366.789093 
	C467.362915,366.172913 465.700989,365.556732 464.315521,365.043060 
	C465.344269,367.367920 466.047485,368.957031 466.750671,370.546112 
	C465.005524,370.878723 463.206909,371.610535 461.536285,371.386780 
	C460.607971,371.262451 459.580017,369.666382 459.133881,368.523956 
	C456.588959,362.006744 460.075684,358.494019 469.102997,359.393860 
	C467.730591,358.258942 466.865723,356.990356 466.193268,357.085266 
	C463.566589,357.456024 460.453308,357.556549 458.533295,359.054840 
	C455.163330,361.684631 455.297638,365.800079 456.722687,369.583466 
	C458.148438,373.368713 461.202545,374.596039 465.117004,374.212646 
	C469.490479,373.784332 469.206909,370.691925 469.024872,366.789093 
M341.865967,370.425873 
	C339.099365,370.936523 336.332764,371.447144 332.111511,372.226257 
	C335.254608,373.103790 337.562347,374.463989 339.549622,374.095581 
	C341.425140,373.747864 343.611908,371.873230 344.407196,370.105774 
	C344.884766,369.044434 343.260101,366.622650 342.041595,365.313599 
	C340.374451,363.522583 338.195343,362.208038 336.235687,360.689270 
	C338.594635,360.010742 340.953613,359.332184 343.312561,358.653656 
	C341.336304,357.473816 338.950104,356.644196 336.839111,357.097107 
	C335.557526,357.372070 333.587830,359.985260 333.887115,360.921631 
	C334.499207,362.836670 336.352783,364.406036 337.847687,365.972076 
	C339.118500,367.303375 340.603516,368.430206 341.865967,370.425873 
M484.799774,358.621033 
	C480.755310,355.830017 476.962921,355.951172 475.499695,359.174500 
	C473.671722,363.201233 476.456757,364.865234 479.589783,366.175018 
	C480.047668,366.366455 480.652313,366.476532 480.909332,366.828491 
	C481.704102,367.917053 482.363708,369.104340 483.075806,370.253265 
	C481.693542,370.820740 480.337677,371.747955 478.921356,371.851990 
	C477.571991,371.951141 476.159546,371.191437 474.774811,370.809326 
	C474.634674,371.486816 474.494537,372.164307 474.354401,372.841827 
	C477.010834,373.232086 479.748688,374.170776 482.291199,373.793396 
	C483.671356,373.588531 485.727264,371.093903 485.659210,369.722382 
	C485.575867,368.043091 483.721588,366.337402 482.387604,364.865509 
	C480.963135,363.293793 479.252533,361.981354 477.666870,360.555725 
	C479.846619,360.228394 482.026917,359.904602 484.204926,359.566101 
	C484.358185,359.542267 484.494629,359.410248 484.799774,358.621033 
M511.366364,365.498413 
	C510.333191,357.822754 507.729095,356.078705 499.254028,357.541443 
	C499.254028,362.889130 499.254028,368.266418 499.254028,373.603882 
	C507.649200,374.645050 509.971283,373.187775 511.366364,365.498413 
M294.965240,357.278137 
	C294.653320,362.764893 294.341431,368.251648 294.041840,373.521484 
	C298.192413,373.521484 301.286774,373.521484 304.381134,373.521484 
	C304.402130,373.082581 304.423096,372.643646 304.444092,372.204742 
	C302.129700,372.035156 299.815308,371.865601 297.338745,371.684143 
	C297.338745,369.740509 297.338745,368.050873 297.338745,366.434509 
	C299.608917,366.104340 301.470428,365.833618 303.331970,365.562866 
	C303.284119,365.140900 303.236298,364.718933 303.188446,364.296936 
	C301.289551,364.071198 299.390625,363.845459 297.312622,363.598419 
	C297.312622,362.076324 297.312622,360.707642 297.312622,359.385803 
	C299.860596,359.009918 302.059357,358.685516 304.258148,358.361145 
	C304.206696,357.899658 304.155212,357.438202 304.103760,356.976746 
	C301.339417,356.976746 298.575043,356.976746 294.965240,357.278137 
M313.215363,371.180206 
	C313.215363,369.594025 313.215363,368.007874 313.215363,366.463165 
	C315.539337,366.114319 317.434906,365.829803 319.330505,365.545258 
	C319.286407,365.156189 319.242310,364.767120 319.198242,364.378052 
	C317.188293,364.068787 315.178375,363.759552 313.333710,363.475708 
	C311.116333,355.883759 319.069672,361.040253 320.360199,357.309021 
	C316.939514,357.309021 313.799133,357.309021 310.668335,357.309021 
	C310.668335,363.072998 310.668335,368.428497 310.668335,373.494141 
	C314.218445,373.494141 317.302185,373.494141 320.385925,373.494141 
	C320.397522,373.092896 320.409119,372.691681 320.420746,372.290436 
	C318.236298,372.106873 316.051880,371.923279 313.215363,371.180206 
M262.435852,367.506165 
	C264.083954,371.996490 263.969910,372.057709 255.065094,372.081146 
	C257.333008,373.225372 259.896118,374.342987 262.144012,373.891541 
	C263.718689,373.575226 266.018677,371.025787 265.909332,369.638000 
	C265.770386,367.875366 263.580841,366.226532 262.164917,364.626434 
	C260.866272,363.158936 259.420715,361.821411 258.039917,360.426605 
	C260.099640,360.188660 262.161865,359.969116 264.215912,359.689484 
	C264.473358,359.654449 264.687592,359.302063 266.288971,357.898193 
	C262.879730,357.529999 260.512512,356.836792 258.328125,357.211029 
	C257.118378,357.418274 255.182281,359.648865 255.389618,360.549194 
	C255.809723,362.373383 257.326111,364.039459 258.668030,365.519104 
	C259.391571,366.316925 260.688507,366.594696 262.435852,367.506165 
M521.464844,356.905640 
	C520.058044,357.606384 517.496033,358.217712 517.433716,359.022552 
	C517.054565,363.918335 517.244507,368.858154 517.244507,373.567261 
	C521.138489,373.567261 524.264160,373.567261 527.389832,373.567261 
	C527.417725,373.187744 527.445557,372.808258 527.473450,372.428741 
	C525.024658,372.109009 522.575867,371.789246 519.805664,371.427521 
	C519.912170,369.623016 520.005066,368.047882 520.092285,366.569794 
	C522.300110,366.157745 524.090027,365.823669 525.879944,365.489594 
	C525.864685,365.134369 525.849365,364.779175 525.834106,364.423950 
	C524.022217,364.122131 522.210266,363.820282 520.357483,363.511658 
	C517.736572,355.868164 526.239929,361.109070 527.450867,356.901825 
	C525.509705,356.901825 523.926331,356.901825 521.464844,356.905640 
M397.314178,364.634125 
	C395.439301,364.247864 393.564392,363.861603 391.550171,363.446655 
	C391.550171,361.980804 391.550171,360.614075 391.550171,359.286865 
	C394.142059,358.943420 396.376434,358.647339 398.610779,358.351257 
	C398.555237,357.992065 398.499725,357.632904 398.444183,357.273743 
	C395.424408,357.273743 392.404633,357.273743 389.308502,357.273743 
	C389.308502,362.961975 389.308502,368.331726 389.308502,373.417908 
	C392.716644,373.417908 395.755768,373.417908 398.794891,373.417908 
	C398.805725,373.046265 398.816528,372.674622 398.827362,372.302979 
	C396.478607,372.083435 394.129822,371.863892 391.620331,371.629333 
	C391.620331,369.633942 391.620331,367.955200 391.620331,366.500244 
	C393.816284,366.072479 395.563660,365.732117 397.314178,364.634125 
M378.289276,356.962921 
	C376.678925,357.034790 375.068573,357.106659 373.246979,357.187958 
	C373.246979,362.847992 373.246979,368.209808 373.246979,373.515778 
	C376.625580,373.515778 379.697388,373.515778 382.769196,373.515778 
	C382.793732,373.121643 382.818237,372.727539 382.842743,372.333405 
	C380.539764,372.120270 378.236786,371.907135 375.577118,371.660980 
	C375.577118,369.802582 375.577118,368.117950 375.577118,366.470428 
	C377.751648,366.087860 379.613647,365.760254 381.475677,365.432678 
	C381.420959,365.064423 381.366272,364.696167 381.311584,364.327911 
	C379.421906,364.085785 377.532196,363.843628 375.281403,363.555237 
	C375.356873,361.927795 375.420135,360.563751 375.480713,359.257477 
	C378.176178,358.932343 380.397797,358.664398 382.619415,358.396423 
	C382.572968,358.028748 382.526550,357.661072 382.480103,357.293365 
	C381.374207,357.183014 380.268311,357.072632 378.289276,356.962921 
M415.982941,371.997192 
	C416.356506,372.612793 416.730072,373.228424 417.103638,373.844025 
	C417.528168,373.091949 418.296814,372.350250 418.319794,371.586090 
	C418.441986,367.523529 418.377258,363.455292 418.377258,359.621582 
	C420.546814,358.990936 421.953491,358.582062 423.360138,358.173187 
	C423.295105,357.960876 423.230072,357.748566 423.165009,357.536255 
	C419.217834,357.536255 415.270660,357.536255 411.323486,357.536255 
	C411.314545,357.818237 411.305603,358.100250 411.296661,358.382233 
	C412.789154,358.721619 414.281647,359.061005 415.962708,359.443237 
	C415.962708,363.522644 415.962708,367.310242 415.982941,371.997192 
M428.987946,358.007477 
	C428.987946,363.272797 428.987946,368.538086 428.987946,373.803406 
	C429.653412,373.790405 430.318848,373.777374 430.984314,373.764374 
	C430.984314,368.746460 431.025055,363.727722 430.920074,358.712006 
	C430.909821,358.221832 430.002411,357.750458 428.987946,358.007477 
z"/>
<path fill="#903A6E" opacity="1.000000" stroke="none" 
	d="
M403.381378,285.306458 
	C404.045288,285.751556 404.777435,286.207672 404.948608,286.050995 
	C420.813141,271.527618 427.141846,270.493713 445.776306,279.608307 
	C446.172333,274.938904 446.388428,270.336334 447.006927,265.788544 
	C447.452148,262.514954 448.187164,259.231750 449.234833,256.100708 
	C450.750641,251.570572 453.950043,248.942566 458.956940,248.999573 
	C464.167725,249.058929 467.123779,252.237106 467.904816,256.832153 
	C468.931061,262.869446 469.126617,269.052429 469.581177,275.180023 
	C469.739655,277.316376 469.606445,279.474396 469.606445,282.642822 
	C472.657410,280.936890 474.947052,279.492279 477.375366,278.339813 
	C480.514679,276.849884 483.666901,275.235138 486.991821,274.326569 
	C491.171997,273.184357 495.013611,274.316650 497.487762,278.161133 
	C499.883331,281.883575 499.883179,285.861298 497.214142,289.375824 
	C494.924500,292.390778 492.116150,295.011871 489.332672,298.028839 
	C491.532928,301.803864 494.178223,305.802032 496.274353,310.069916 
	C499.162140,315.949768 498.605225,320.345428 495.210205,322.807800 
	C491.250275,325.679932 486.329407,324.930115 481.812378,320.308563 
	C478.918182,317.347351 476.533447,313.894196 473.783630,310.782379 
	C472.917450,309.802185 471.607849,309.213837 470.501160,308.446167 
	C469.799408,309.661774 469.004639,310.835541 468.431793,312.109131 
	C468.102234,312.841888 468.188263,313.750092 467.990570,314.555573 
	C466.897675,319.008850 465.778198,323.570465 460.165649,324.252258 
	C454.758545,324.909058 451.402374,322.028229 449.166656,316.689117 
	C443.431610,322.451996 436.367950,324.515991 428.752899,324.523346 
	C420.964233,324.530853 414.228363,321.441345 408.501282,315.935883 
	C406.079620,324.673828 402.073822,326.522797 394.472504,323.049164 
	C393.208405,322.471466 391.360992,322.502167 389.993134,322.927368 
	C380.789581,325.788208 371.982391,325.658997 363.490509,319.887665 
	C362.880402,320.539429 362.356567,321.596375 361.575012,321.845886 
	C358.567200,322.806000 355.132782,324.699615 352.521362,323.945618 
	C350.247833,323.289246 347.977570,319.761841 347.297852,317.097015 
	C346.203827,312.807678 346.590149,308.162750 346.031006,303.708252 
	C345.564667,299.992889 344.637268,296.283783 339.818604,295.987671 
	C334.648926,295.669983 333.352386,299.420898 332.765839,303.350433 
	C332.203400,307.118317 332.336151,310.984436 331.941833,314.784393 
	C331.543793,318.620453 331.108276,322.682556 326.607483,324.082825 
	C322.465698,325.371429 319.097870,323.909363 316.651245,320.370148 
	C307.542816,326.636658 300.863403,326.418610 293.166931,318.571930 
	C288.343475,313.654297 284.454956,307.819641 279.933716,302.127960 
	C279.312347,306.445770 278.960815,310.707092 278.044281,314.843170 
	C276.564911,321.518860 272.887146,324.672333 267.274597,324.661438 
	C261.931763,324.651062 258.330048,321.601532 256.576721,315.259460 
	C255.871506,312.708496 255.238892,310.024414 255.256348,307.405426 
	C255.354965,292.592621 255.551010,277.777832 255.995605,262.972198 
	C256.077454,260.246490 257.102356,257.390381 258.309753,254.893173 
	C260.277985,250.822311 263.717102,248.693665 268.424286,248.996628 
	C272.906433,249.285095 276.200989,251.493683 277.272034,255.783478 
	C278.631287,261.227539 279.326782,266.837372 280.440338,273.119415 
	C281.466614,271.557587 282.231598,270.060455 283.299713,268.825470 
	C287.955444,263.442535 292.247192,257.625153 297.536560,252.943176 
	C302.972961,248.131012 309.188873,248.174286 313.583588,251.531357 
	C318.181915,255.043884 319.749664,262.515930 317.217957,268.856415 
	C314.132385,276.584045 308.032074,281.295624 300.981384,285.038208 
	C299.428070,285.862701 297.810272,286.565674 296.068451,287.398071 
	C301.453003,290.917633 306.557800,294.254303 311.882355,297.734619 
	C312.575500,292.615540 313.061066,287.566498 314.016418,282.608002 
	C314.474762,280.228912 315.462280,277.773407 316.834625,275.783112 
	C320.586700,270.341553 326.259247,270.802582 331.241211,276.783295 
	C342.068085,271.366913 351.661591,273.056549 359.742889,282.183228 
	C373.082642,269.662079 392.544159,271.009613 403.381378,285.306458 
M423.143494,298.083282 
	C422.792511,305.385193 427.579376,309.292175 433.443329,306.609283 
	C437.450836,304.775787 441.573425,303.193756 446.421417,301.175964 
	C445.885681,300.837524 444.904327,300.031555 443.783997,299.546906 
	C441.082855,298.378235 437.764557,297.985931 435.687988,296.154724 
	C430.886627,291.920563 427.593842,291.953033 423.143494,298.083282 
M383.232025,291.995972 
	C376.946503,292.612305 370.660980,293.228607 364.167053,293.865387 
	C364.615509,296.003204 364.947815,297.587158 365.051849,298.083160 
	C372.758240,297.364227 380.154510,296.674225 387.959290,295.946106 
	C386.862457,294.907928 385.420441,293.543030 383.232025,291.995972 
M377.651367,307.952209 
	C377.478607,309.471680 377.305817,310.991119 377.133057,312.510590 
	C379.319336,312.717041 381.536682,313.212372 383.675903,312.982086 
	C384.486267,312.894867 385.116516,311.134552 385.828888,310.136871 
	C384.302917,309.103210 382.864197,307.878601 381.211029,307.123413 
	C380.479095,306.789093 379.313171,307.404846 377.651367,307.952209 
z"/>
<path fill="#DA3D7F" opacity="1.000000" stroke="none" 
	d="
M471.996155,215.997070 
	C458.356110,229.644516 445.326263,243.981934 430.899933,256.740265 
	C417.191315,268.863831 398.247803,267.573669 385.176758,254.692688 
	C359.667206,229.554123 334.381805,204.183792 309.282745,178.635239 
	C300.136169,169.324860 297.863922,157.749603 303.337036,145.882965 
	C308.944855,133.724274 318.259460,125.775002 332.539764,124.890244 
	C341.907806,124.309837 348.751984,128.374237 354.899780,134.843353 
	C372.684814,153.557938 390.474792,172.272186 408.562103,190.692703 
	C414.606964,196.848938 421.519165,202.160263 428.097717,207.784271 
	C440.935364,218.759155 455.197479,222.164581 471.628296,215.859924 
	C472.002655,216.002182 471.996155,215.997086 471.996155,215.997070 
z"/>
<path fill="#903A6D" opacity="1.000000" stroke="none" 
	d="
M533.759460,324.323547 
	C529.615112,322.941986 525.609131,322.149658 522.246155,320.230560 
	C518.168030,317.903381 517.242249,313.220184 519.323425,309.872620 
	C521.254333,306.766785 526.769653,305.886932 530.592957,307.893951 
	C532.331909,308.806824 534.273865,309.332947 536.123779,310.034454 
	C536.444580,309.433472 536.765381,308.832489 537.086182,308.231476 
	C535.850525,307.150085 534.743835,305.846527 533.350098,305.037445 
	C531.059509,303.707764 528.481567,302.870331 526.202087,301.524933 
	C515.989746,295.497223 515.656006,284.746216 525.705505,278.422180 
	C534.762756,272.722565 544.554993,272.640717 554.495483,276.010254 
	C555.890442,276.483154 557.217896,277.155090 559.119141,277.966370 
	C559.399414,273.884247 559.479797,270.136841 559.960632,266.441498 
	C560.429932,262.834717 560.974243,259.173065 562.088928,255.730865 
	C563.573608,251.146133 566.964172,248.732086 571.980957,249.009186 
	C577.076660,249.290665 580.119446,252.322098 580.914856,256.960175 
	C581.920166,262.822235 582.113403,268.823639 582.685059,275.071960 
	C594.651184,271.908020 604.632141,274.528748 611.340149,286.410736 
	C617.151611,278.437195 624.530518,274.169434 634.192139,273.796936 
	C643.706116,273.430084 651.426880,276.685303 657.012817,283.574371 
	C659.846252,280.338257 662.024597,276.250366 665.421753,274.399933 
	C669.155640,272.366058 673.588867,273.804779 676.448608,277.587891 
	C688.869080,271.061920 701.399719,273.126678 709.676208,282.799042 
	C717.305542,291.715057 718.167480,303.933472 712.114990,312.870605 
	C703.991699,324.865540 693.809509,327.404114 675.920532,321.527802 
	C675.920532,324.827545 676.236145,327.978302 675.843689,331.038269 
	C675.307190,335.221100 674.381165,339.437500 668.943115,340.025970 
	C664.135254,340.546234 660.900024,338.322571 659.047424,332.813995 
	C658.203979,330.306152 657.665161,327.664215 657.288086,325.040009 
	C656.910583,322.412842 656.906982,319.731964 656.708435,316.581421 
	C641.973328,327.305878 627.532715,328.639984 614.192078,315.856750 
	C611.846741,318.537018 610.028625,322.074860 607.146545,323.593964 
	C601.722778,326.452698 595.983459,322.796082 595.087463,316.471161 
	C594.505615,312.363892 594.503418,308.177582 594.105347,304.039795 
	C593.915771,302.068756 593.855408,299.867645 592.912842,298.250977 
	C592.057007,296.783051 590.113953,295.146912 588.595886,295.092163 
	C587.071350,295.037201 584.632874,296.513306 584.091187,297.902039 
	C582.908813,300.933319 582.536621,304.316284 582.098145,307.590973 
	C581.723938,310.385468 581.907043,313.256287 581.507996,316.045319 
	C580.873596,320.479675 579.000061,323.968384 573.899963,324.548645 
	C569.033386,325.102325 565.487610,323.245422 563.191345,318.951172 
	C562.724304,318.077759 562.302734,317.179993 561.751160,316.075134 
	C554.068848,324.336365 544.399963,325.314423 533.759460,324.323547 
M638.526428,294.692963 
	C634.573059,292.990845 631.102844,294.426331 629.856262,297.950958 
	C628.980408,300.427155 629.552979,304.275574 631.008118,306.519440 
	C633.325989,310.093689 637.991577,309.712067 640.967102,306.567261 
	C644.177856,303.173950 643.534241,298.905640 638.526428,294.692963 
M696.953674,299.614410 
	C696.465393,298.406982 696.307312,296.588959 695.424255,296.111298 
	C693.147156,294.879547 690.075378,292.984406 688.202820,293.690979 
	C685.991333,294.525360 683.390015,297.812408 683.388306,300.037994 
	C683.386658,302.267883 685.934631,305.299866 688.166016,306.544403 
	C691.540649,308.426544 695.158752,305.528656 696.953674,299.614410 
M549.444214,295.984802 
	C552.830750,297.523651 556.217224,299.062531 559.940613,300.754456 
	C559.758911,298.096283 559.604858,295.842224 559.486816,294.115814 
	C556.283630,293.215698 553.673523,292.340942 550.996277,291.796417 
	C549.854675,291.564209 548.572632,292.022064 547.354431,292.166382 
	C547.813599,293.349243 548.272766,294.532074 549.444214,295.984802 
z"/>
<path fill="#D93E7F" opacity="1.000000" stroke="none" 
	d="
M370.383362,391.577209 
	C357.492828,382.218170 344.061615,380.259247 328.865784,387.660583 
	C331.838287,382.626068 335.157166,381.657654 339.752869,380.794739 
	C349.528961,378.959198 359.088715,381.795868 368.899200,380.351044 
	C378.085205,378.998138 387.712250,380.805145 397.149139,380.937195 
	C404.385681,381.038483 407.596130,376.239258 405.454865,369.283142 
	C404.914185,367.526764 404.883545,365.613373 404.618561,363.772125 
	C405.285156,363.575195 405.951782,363.378265 406.618378,363.181335 
	C407.413818,365.409576 408.824738,367.617493 408.899231,369.869568 
	C409.240997,380.200806 412.372131,382.587708 422.295715,379.564453 
	C422.758667,379.423370 423.234253,379.140503 423.685974,379.173035 
	C431.749481,379.754089 439.822113,380.256439 447.862152,381.076263 
	C449.639099,381.257385 451.683563,382.201416 452.952515,383.454651 
	C465.744415,396.087799 478.459045,408.800751 491.076691,421.608185 
	C501.844147,432.537567 504.237244,445.380188 498.032471,457.593597 
	C490.992462,471.451172 477.291473,479.499359 462.922424,476.634674 
	C457.619507,475.577454 452.129486,471.960419 448.217133,468.026672 
	C430.377258,450.089142 413.281006,431.412659 395.468994,413.446442 
	C387.762909,405.673584 378.973328,398.974915 370.383362,391.577209 
z"/>
<path fill="#903B6E" opacity="1.000000" stroke="none" 
	d="
M171.382385,300.967834 
	C170.724533,297.380707 169.714157,294.691589 165.716568,294.834290 
	C161.953674,294.968597 161.106705,297.779449 160.701431,300.617065 
	C160.045380,305.210663 159.738724,309.853973 159.278732,314.475739 
	C158.809509,319.189972 157.705383,323.358948 152.050735,324.391510 
	C146.669449,325.374146 143.065689,323.202179 140.625519,318.557922 
	C140.329681,317.994873 139.852570,317.527100 139.326981,316.842621 
	C134.637375,325.353149 127.003319,325.604370 119.195511,323.900696 
	C110.826279,322.074554 105.334595,316.635712 104.049164,307.993103 
	C103.075958,301.449707 102.910851,294.786072 102.371956,287.997559 
	C98.879097,287.341980 94.988991,287.323669 91.836075,285.789917 
	C89.410408,284.609955 86.919334,281.786560 86.239578,279.221680 
	C85.275398,275.583557 87.541130,272.297516 91.275017,271.076416 
	C94.856812,269.905090 98.655403,269.396667 102.247948,268.620850 
	C103.160912,264.386108 103.752655,260.100311 105.044418,256.037048 
	C106.683090,250.882523 110.407997,248.547089 115.189888,249.010422 
	C120.252762,249.500977 122.194283,253.087387 122.981796,257.427612 
	C123.632050,261.011322 123.815254,264.679779 124.255684,268.778442 
	C128.227631,269.138947 132.420502,269.519531 136.751892,269.912659 
	C137.567780,265.507568 138.069733,261.218903 139.194962,257.100555 
	C140.792587,251.253296 144.323227,248.741699 149.608658,249.020370 
	C154.700577,249.288834 157.900787,252.401169 158.931808,258.365326 
	C159.412399,261.145355 159.666580,263.977142 159.824631,266.796631 
	C159.972046,269.426575 159.856125,272.071320 159.856125,275.177032 
	C172.545670,271.962952 182.665588,274.524414 189.001022,286.724182 
	C191.269043,284.325287 193.177597,281.941284 195.446198,279.972046 
	C204.087448,272.470917 217.905121,271.701599 227.021744,278.058289 
	C233.835358,282.809174 237.141434,290.503693 235.346130,297.432343 
	C233.638519,304.022522 227.795639,308.269440 218.984634,308.961761 
	C215.222153,309.257385 211.417099,309.011200 206.786041,309.011200 
	C211.270767,313.667847 216.151001,313.326233 221.015594,312.640991 
	C224.650208,312.129028 228.525589,310.695587 230.369492,315.459778 
	C231.560928,318.538208 228.553879,322.205292 223.260269,323.518585 
	C211.429474,326.453613 200.532364,324.676849 191.241348,315.692474 
	C189.025711,319.939850 187.456299,324.367676 181.696793,324.188690 
	C176.536926,324.028320 173.764877,322.332092 172.967087,317.243286 
	C172.146103,312.006348 171.968262,306.668610 171.382385,300.967834 
M133.893372,286.538330 
	C130.360626,286.988037 126.827888,287.437744 122.836571,287.945801 
	C123.186859,293.569031 123.208908,298.715179 123.994659,303.741943 
	C124.244301,305.338989 126.275612,307.183868 127.933784,307.921997 
	C131.122040,309.341187 134.626022,310.051178 136.976730,310.750977 
	C136.976730,303.596619 137.019150,295.698212 136.881027,287.802948 
	C136.871841,287.277954 135.490799,286.776978 133.893372,286.538330 
M208.128082,290.360443 
	C207.811569,292.167969 207.495071,293.975464 207.178558,295.782990 
	C210.256470,296.041962 213.350998,296.546112 216.397400,296.339844 
	C216.963226,296.301544 218.025650,292.216156 217.684937,292.018066 
	C215.488968,290.741516 212.987671,289.959930 210.533066,289.185455 
	C210.067703,289.038605 209.362793,289.650879 208.128082,290.360443 
z"/>
<path fill="#D93E7F" opacity="1.000000" stroke="none" 
	d="
M530.400024,204.246765 
	C541.824768,198.661819 552.387451,199.922989 562.220337,207.011688 
	C573.022583,214.799194 578.470093,225.281784 576.829041,238.814743 
	C576.687500,239.981873 575.104004,241.739258 573.991150,241.907867 
	C559.018433,244.176605 554.585632,248.715454 553.015076,263.819397 
	C552.881592,265.102997 552.680298,266.379547 552.495972,267.767975 
	C542.718262,266.361389 533.322876,266.121613 524.527527,270.867859 
	C511.022064,278.155823 507.925232,289.295013 515.889099,302.672821 
	C514.161133,304.753693 512.333557,306.890900 510.580780,309.087830 
	C509.435638,310.523163 508.398956,312.045044 506.551239,314.569977 
	C503.505249,308.682770 501.107605,304.268524 499.006042,299.717621 
	C498.733429,299.127289 499.867432,297.733887 500.555237,296.877411 
	C507.105164,288.720856 507.944305,280.622437 502.904480,273.627289 
	C498.082153,266.934052 490.150299,265.268921 480.402283,268.895691 
	C479.351807,269.286530 478.286713,269.638123 476.815582,270.152130 
	C475.634735,262.596985 474.903564,256.442749 481.640503,250.382462 
	C495.230713,238.157181 507.673859,224.662201 520.726562,211.829697 
	C523.544434,209.059372 526.938721,206.875305 530.400024,204.246765 
z"/>
<path fill="#DA3E7F" opacity="1.000000" stroke="none" 
	d="
M342.374969,398.451843 
	C362.838165,401.774963 376.898102,419.798065 374.595367,438.397919 
	C371.842651,460.631989 353.260986,473.748413 334.583588,471.627686 
	C312.141296,469.079498 298.520203,451.487549 301.083557,429.595337 
	C303.306061,410.613678 321.864746,396.428314 342.374969,398.451843 
z"/>
<path fill="#DA3E80" opacity="1.000000" stroke="none" 
	d="
M432.043121,149.114502 
	C442.537506,131.020309 464.654114,124.860069 482.367554,134.810974 
	C499.971161,144.700165 506.359650,166.738708 496.752502,184.435104 
	C486.858917,202.659210 465.016479,209.130737 446.535522,199.313583 
	C428.846619,189.917175 422.371338,167.887085 432.043121,149.114502 
z"/>
<path fill="#D74080" opacity="1.000000" stroke="none" 
	d="
M227.362732,380.455505 
	C222.623917,368.079834 224.078995,357.299927 233.699661,348.133484 
	C240.803253,341.365234 247.827057,334.513214 255.115570,327.477325 
	C260.224457,330.984009 265.507660,332.521271 271.643829,331.191681 
	C278.043976,329.804901 281.254608,325.184326 284.216248,320.015259 
	C286.782379,322.345001 288.901306,324.799469 291.512329,326.497070 
	C294.395905,328.371765 297.664093,330.632385 300.881317,330.830353 
	C309.996490,331.391174 319.279358,331.781158 328.268311,330.560455 
	C331.787384,330.082550 334.759796,325.197449 337.842285,322.177795 
	C338.538025,321.496246 338.654633,320.223480 339.060303,319.164215 
	C340.733246,322.120422 342.215912,324.740356 344.057220,327.994080 
	C337.107086,334.794983 330.044098,341.832611 322.787201,348.664307 
	C321.759155,349.632141 319.789490,349.961151 318.251923,349.970398 
	C302.945435,350.062439 287.638153,350.039673 272.331177,350.014008 
	C268.576141,350.007721 264.820984,349.885468 261.066437,349.793976 
	C252.409622,349.583038 247.266083,355.739258 248.834061,364.358398 
	C249.030197,365.436584 249.025665,366.659576 248.723618,367.702393 
	C246.865753,374.116486 248.247131,377.364502 254.313446,379.955780 
	C255.809067,380.594666 257.647095,381.323883 259.109253,381.006226 
	C269.550079,378.737823 280.082825,382.615509 291.016296,380.929077 
	C285.282013,386.155457 279.993439,392.007202 273.720490,396.477692 
	C260.756012,405.716888 241.599426,401.251038 231.390076,387.210968 
	C229.929520,385.202362 228.812347,382.944031 227.362732,380.455505 
z"/>
<path fill="#D93F80" opacity="1.000000" stroke="none" 
	d="
M235.202621,256.716217 
	C227.388428,242.933197 228.579285,226.209763 237.971222,214.739288 
	C248.278870,202.150467 263.278656,197.889954 279.302734,202.999512 
	C293.046997,207.382095 302.993103,220.887482 303.968079,236.193802 
	C304.215759,240.081711 303.360321,242.255859 299.287567,244.061066 
	C294.107727,246.357010 289.643097,250.266556 284.469818,253.749985 
	C280.784393,245.014740 273.778198,240.092911 263.897095,242.407486 
	C250.169235,245.623123 249.567078,257.749298 247.988846,268.897797 
	C247.542450,269.158783 247.096069,269.419739 246.649673,269.680695 
	C242.900162,265.462067 239.150665,261.243408 235.202621,256.716217 
z"/>
<path fill="#D74080" opacity="1.000000" stroke="none" 
	d="
M547.729370,380.934875 
	C552.792542,380.137451 554.409668,377.067139 554.384033,372.708679 
	C554.356567,368.045959 554.429077,363.382294 554.364502,358.720306 
	C554.274231,352.195587 551.929749,349.966064 545.637634,350.011353 
	C536.901306,350.074280 528.087036,349.321991 519.453491,350.266052 
	C513.369995,350.931244 507.589874,351.133514 501.387878,349.433746 
	C505.468719,340.211609 512.205383,333.752472 521.494324,329.866852 
	C522.235352,329.556885 523.208679,329.208405 523.888062,329.435089 
	C532.323181,332.250000 540.953247,331.007721 549.548096,331.320862 
	C553.500916,331.464905 557.938171,335.204956 561.052673,338.392273 
	C571.610962,349.197357 574.751770,362.200073 569.795593,376.570343 
	C565.032349,390.381287 554.785767,398.692841 540.611572,400.787048 
	C525.837402,402.969940 513.472351,397.615662 504.575592,385.220245 
	C504.092804,384.547607 503.669464,383.819702 503.316803,383.071167 
	C503.116821,382.646729 503.117096,382.127930 502.796783,380.430847 
	C517.834778,380.628998 532.570190,380.307159 547.729370,380.934875 
z"/>
<path fill="#D64381" opacity="1.000000" stroke="none" 
	d="
M484.488098,344.761230 
	C483.975586,346.560913 483.609161,347.990051 483.373932,348.907379 
	C479.618958,349.936401 476.296844,351.626892 473.024994,351.534637 
	C469.401215,351.432465 464.989990,350.685791 462.388306,348.485504 
	C455.691559,342.822021 449.805084,336.200470 443.594879,329.961700 
	C443.751343,329.387848 443.907837,328.813995 444.064331,328.240143 
	C445.636780,328.240143 447.531097,327.662445 448.730957,328.331055 
	C458.871155,333.981079 466.361633,332.276520 472.774475,322.989166 
	C478.444611,326.301392 484.092072,329.600342 489.926544,333.008545 
	C488.509064,336.057098 486.571594,340.223907 484.488098,344.761230 
z"/>
<path fill="#D54580" opacity="1.000000" stroke="none" 
	d="
M328.736206,242.263885 
	C337.594482,251.033737 346.202728,259.553528 354.652649,267.916595 
	C347.636780,267.916595 340.884186,267.915192 334.131592,267.917114 
	C329.952637,267.918304 325.718048,263.985809 325.209534,259.895477 
	C324.946014,257.775848 324.871887,255.166855 323.623596,253.714615 
	C317.631348,246.743347 319.045319,237.345337 315.821198,229.143906 
	C320.042877,233.433884 324.264557,237.723846 328.736206,242.263885 
z"/>
<path fill="#D44380" opacity="1.000000" stroke="none" 
	d="
M416.511047,348.389740 
	C412.637390,349.855743 408.749664,350.956848 405.464966,351.887207 
	C401.833923,351.223328 398.568604,350.189178 395.279785,350.107880 
	C385.820129,349.874146 376.350952,350.025452 366.788300,350.025452 
	C373.198517,337.455872 402.264771,330.287323 416.511047,348.389740 
z"/>
<path fill="#C46389" opacity="1.000000" stroke="none" 
	d="
M286.672729,370.557678 
	C285.893311,371.964813 285.216339,372.978424 284.539337,373.992035 
	C283.767944,373.067169 282.644745,372.258484 282.293365,371.194885 
	C281.365356,368.385681 280.771942,365.465912 279.684418,361.161804 
	C278.536072,365.664276 277.826996,368.765198 276.915558,371.805481 
	C276.670258,372.623718 275.809998,373.257599 275.232056,373.976135 
	C274.548523,373.395447 273.415039,372.918335 273.253693,372.217438 
	C272.118408,367.285767 271.183258,362.308044 270.184174,357.345032 
	C270.869781,357.154968 271.555389,356.964874 272.240997,356.774780 
	C273.146240,360.640991 274.051483,364.507233 275.212036,369.463959 
	C276.682587,364.534637 277.837036,360.664856 278.991486,356.795105 
	C279.508331,356.795166 280.025177,356.795197 280.542023,356.795258 
	C281.761505,360.727936 282.980988,364.660583 284.413666,369.280792 
	C285.493103,364.663971 286.381439,360.864502 287.269775,357.065002 
	C287.802673,357.123291 288.335602,357.181580 288.868500,357.239868 
	C288.605194,359.261719 288.393677,361.292023 288.064850,363.303162 
	C287.689484,365.599060 287.209625,367.877869 286.672729,370.557678 
z"/>
<path fill="#D17899" opacity="1.000000" stroke="none" 
	d="
M547.510864,371.924835 
	C547.237366,372.574066 546.963867,373.223267 546.690369,373.872467 
	C546.192017,373.369843 545.296265,372.891937 545.263245,372.360413 
	C545.109802,369.890320 545.195374,367.405426 544.474976,364.690521 
	C543.276001,367.210083 542.077087,369.729645 540.311584,373.439728 
	C538.752197,369.798157 537.693970,367.326874 536.255981,363.968811 
	C535.903015,367.943787 535.634521,370.966919 535.366089,373.990051 
	C534.721313,373.980347 534.076477,373.970612 533.431702,373.960876 
	C533.431702,368.588867 533.431702,363.216858 533.431702,357.844849 
	C534.556641,358.080505 536.387268,357.981415 536.685242,358.609436 
	C538.019104,361.421021 538.916321,364.439758 540.375793,368.512878 
	C541.707520,365.169342 542.635986,362.838165 543.805542,360.488861 
	C544.701294,361.622406 545.629517,362.702362 545.954041,363.940552 
	C546.640137,366.558167 547.010803,369.258453 547.510864,371.924835 
z"/>
<path fill="#C56384" opacity="1.000000" stroke="none" 
	d="
M469.048737,367.208191 
	C469.206909,370.691925 469.490479,373.784332 465.117004,374.212646 
	C461.202545,374.596039 458.148438,373.368713 456.722687,369.583466 
	C455.297638,365.800079 455.163330,361.684631 458.533295,359.054840 
	C460.453308,357.556549 463.566589,357.456024 466.193268,357.085266 
	C466.865723,356.990356 467.730591,358.258942 469.102997,359.393860 
	C460.075684,358.494019 456.588959,362.006744 459.133881,368.523956 
	C459.580017,369.666382 460.607971,371.262451 461.536285,371.386780 
	C463.206909,371.610535 465.005524,370.878723 466.750671,370.546143 
	C466.047485,368.957031 465.344269,367.367920 464.315521,365.043060 
	C465.700989,365.556732 467.362915,366.172913 469.048737,367.208191 
z"/>
<path fill="#C56787" opacity="1.000000" stroke="none" 
	d="
M355.030396,366.103424 
	C355.740234,363.018127 356.450043,359.932861 357.159851,356.847565 
	C357.775269,356.811768 358.390656,356.775940 359.006073,356.740112 
	C360.078400,360.350281 361.150726,363.960419 362.625366,368.924957 
	C363.937164,364.077454 364.916504,360.458496 365.895874,356.839508 
	C366.496979,357.008575 367.098114,357.177643 367.699249,357.346680 
	C366.632050,362.544800 365.595367,367.749695 364.442902,372.928802 
	C364.344879,373.369354 363.258484,374.045471 363.003906,373.910278 
	C362.239899,373.504608 361.311981,372.863037 361.071259,372.113403 
	C360.163666,369.286957 359.503021,366.381256 357.669403,363.162628 
	C357.160767,364.909454 356.652100,366.656250 355.787720,368.477417 
	C355.298126,367.735626 355.164246,366.919525 355.030396,366.103424 
z"/>
<path fill="#C56384" opacity="1.000000" stroke="none" 
	d="
M341.929871,370.036682 
	C340.603516,368.430206 339.118500,367.303375 337.847687,365.972076 
	C336.352783,364.406036 334.499207,362.836670 333.887115,360.921631 
	C333.587830,359.985260 335.557526,357.372070 336.839111,357.097107 
	C338.950104,356.644196 341.336304,357.473816 343.312561,358.653656 
	C340.953613,359.332184 338.594635,360.010742 336.235687,360.689270 
	C338.195343,362.208038 340.374451,363.522583 342.041595,365.313599 
	C343.260101,366.622650 344.884766,369.044434 344.407196,370.105774 
	C343.611908,371.873230 341.425140,373.747864 339.549622,374.095581 
	C337.562347,374.463989 335.254608,373.103790 332.111511,372.226257 
	C336.332764,371.447144 339.099365,370.936523 341.929871,370.036682 
z"/>
<path fill="#C56384" opacity="1.000000" stroke="none" 
	d="
M484.719360,358.974792 
	C484.494629,359.410248 484.358185,359.542267 484.204926,359.566101 
	C482.026917,359.904602 479.846619,360.228394 477.666870,360.555725 
	C479.252533,361.981354 480.963135,363.293793 482.387604,364.865509 
	C483.721588,366.337402 485.575867,368.043091 485.659210,369.722382 
	C485.727264,371.093903 483.671356,373.588531 482.291199,373.793396 
	C479.748688,374.170776 477.010834,373.232086 474.354401,372.841827 
	C474.494537,372.164307 474.634674,371.486816 474.774811,370.809326 
	C476.159546,371.191437 477.571991,371.951141 478.921356,371.851990 
	C480.337677,371.747955 481.693542,370.820740 483.075806,370.253265 
	C482.363708,369.104340 481.704102,367.917053 480.909332,366.828491 
	C480.652313,366.476532 480.047668,366.366455 479.589783,366.175018 
	C476.456757,364.865234 473.671722,363.201233 475.499695,359.174500 
	C476.962921,355.951172 480.755310,355.830017 484.719360,358.974792 
z"/>
<path fill="#C2567E" opacity="1.000000" stroke="none" 
	d="
M511.349854,365.873047 
	C509.971283,373.187775 507.649200,374.645050 499.254028,373.603882 
	C499.254028,368.266418 499.254028,362.889130 499.254028,357.541443 
	C507.729095,356.078705 510.333191,357.822754 511.349854,365.873047 
M505.820007,359.280304 
	C504.411469,359.196930 503.002930,359.113556 501.494720,359.024261 
	C501.494720,363.628662 501.494720,367.687012 501.494720,373.588470 
	C504.538574,371.480286 507.262543,370.544403 508.267273,368.681366 
	C509.890594,365.671326 509.618622,362.213165 505.820007,359.280304 
z"/>
<path fill="#C56787" opacity="1.000000" stroke="none" 
	d="
M295.387970,357.127441 
	C298.575043,356.976746 301.339417,356.976746 304.103760,356.976746 
	C304.155212,357.438202 304.206696,357.899658 304.258148,358.361145 
	C302.059357,358.685516 299.860596,359.009918 297.312622,359.385803 
	C297.312622,360.707642 297.312622,362.076324 297.312622,363.598419 
	C299.390625,363.845459 301.289551,364.071198 303.188446,364.296936 
	C303.236298,364.718933 303.284119,365.140900 303.331970,365.562866 
	C301.470428,365.833618 299.608917,366.104340 297.338745,366.434509 
	C297.338745,368.050873 297.338745,369.740509 297.338745,371.684143 
	C299.815308,371.865601 302.129700,372.035156 304.444092,372.204742 
	C304.423096,372.643646 304.402130,373.082581 304.381134,373.521484 
	C301.286774,373.521484 298.192413,373.521484 294.041840,373.521484 
	C294.341431,368.251648 294.653320,362.764893 295.387970,357.127441 
z"/>
<path fill="#C56787" opacity="1.000000" stroke="none" 
	d="
M313.541412,371.459961 
	C316.051880,371.923279 318.236298,372.106873 320.420746,372.290436 
	C320.409119,372.691681 320.397522,373.092896 320.385925,373.494141 
	C317.302185,373.494141 314.218445,373.494141 310.668335,373.494141 
	C310.668335,368.428497 310.668335,363.072998 310.668335,357.309021 
	C313.799133,357.309021 316.939514,357.309021 320.360199,357.309021 
	C319.069672,361.040253 311.116333,355.883759 313.333710,363.475708 
	C315.178375,363.759552 317.188293,364.068787 319.198242,364.378052 
	C319.242310,364.767120 319.286407,365.156189 319.330505,365.545258 
	C317.434906,365.829803 315.539337,366.114319 313.215363,366.463165 
	C313.215363,368.007874 313.215363,369.594025 313.541412,371.459961 
z"/>
<path fill="#C56384" opacity="1.000000" stroke="none" 
	d="
M262.081299,367.306641 
	C260.688507,366.594696 259.391571,366.316925 258.668030,365.519104 
	C257.326111,364.039459 255.809723,362.373383 255.389618,360.549194 
	C255.182281,359.648865 257.118378,357.418274 258.328125,357.211029 
	C260.512512,356.836792 262.879730,357.529999 266.288971,357.898193 
	C264.687592,359.302063 264.473358,359.654449 264.215912,359.689484 
	C262.161865,359.969116 260.099640,360.188660 258.039917,360.426605 
	C259.420715,361.821411 260.866272,363.158936 262.164917,364.626434 
	C263.580841,366.226532 265.770386,367.875366 265.909332,369.638000 
	C266.018677,371.025787 263.718689,373.575226 262.144012,373.891541 
	C259.896118,374.342987 257.333008,373.225372 255.065094,372.081146 
	C263.969910,372.057709 264.083954,371.996490 262.081299,367.306641 
z"/>
<path fill="#C56C8B" opacity="1.000000" stroke="none" 
	d="
M521.903931,356.903748 
	C523.926331,356.901825 525.509705,356.901825 527.450867,356.901825 
	C526.239929,361.109070 517.736572,355.868164 520.357483,363.511658 
	C522.210266,363.820282 524.022217,364.122131 525.834106,364.423950 
	C525.849365,364.779175 525.864685,365.134369 525.879944,365.489594 
	C524.090027,365.823669 522.300110,366.157745 520.092285,366.569794 
	C520.005066,368.047882 519.912170,369.623016 519.805664,371.427521 
	C522.575867,371.789246 525.024658,372.109009 527.473450,372.428741 
	C527.445557,372.808258 527.417725,373.187744 527.389832,373.567261 
	C524.264160,373.567261 521.138489,373.567261 517.244507,373.567261 
	C517.244507,368.858154 517.054565,363.918335 517.433716,359.022552 
	C517.496033,358.217712 520.058044,357.606384 521.903931,356.903748 
z"/>
<path fill="#BC557A" opacity="1.000000" stroke="none" 
	d="
M397.312592,365.012939 
	C395.563660,365.732117 393.816284,366.072479 391.620331,366.500244 
	C391.620331,367.955200 391.620331,369.633942 391.620331,371.629333 
	C394.129822,371.863892 396.478607,372.083435 398.827362,372.302979 
	C398.816528,372.674622 398.805725,373.046265 398.794891,373.417908 
	C395.755768,373.417908 392.716644,373.417908 389.308502,373.417908 
	C389.308502,368.331726 389.308502,362.961975 389.308502,357.273743 
	C392.404633,357.273743 395.424408,357.273743 398.444183,357.273743 
	C398.499725,357.632904 398.555237,357.992065 398.610779,358.351257 
	C396.376434,358.647339 394.142059,358.943420 391.550171,359.286865 
	C391.550171,360.614075 391.550171,361.980804 391.550171,363.446655 
	C393.564392,363.861603 395.439301,364.247864 397.312592,365.012939 
z"/>
<path fill="#BC557A" opacity="1.000000" stroke="none" 
	d="
M378.725830,356.962585 
	C380.268311,357.072632 381.374207,357.183014 382.480103,357.293365 
	C382.526550,357.661072 382.572968,358.028748 382.619415,358.396423 
	C380.397797,358.664398 378.176178,358.932343 375.480713,359.257477 
	C375.420135,360.563751 375.356873,361.927795 375.281403,363.555237 
	C377.532196,363.843628 379.421906,364.085785 381.311584,364.327911 
	C381.366272,364.696167 381.420959,365.064423 381.475677,365.432678 
	C379.613647,365.760254 377.751648,366.087860 375.577118,366.470428 
	C375.577118,368.117950 375.577118,369.802582 375.577118,371.660980 
	C378.236786,371.907135 380.539764,372.120270 382.842743,372.333405 
	C382.818237,372.727539 382.793732,373.121643 382.769196,373.515778 
	C379.697388,373.515778 376.625580,373.515778 373.246979,373.515778 
	C373.246979,368.209808 373.246979,362.847992 373.246979,357.187958 
	C375.068573,357.106659 376.678925,357.034790 378.725830,356.962585 
z"/>
<path fill="#BC557A" opacity="1.000000" stroke="none" 
	d="
M415.972839,371.547485 
	C415.962708,367.310242 415.962708,363.522644 415.962708,359.443237 
	C414.281647,359.061005 412.789154,358.721619 411.296661,358.382233 
	C411.305603,358.100250 411.314545,357.818237 411.323486,357.536255 
	C415.270660,357.536255 419.217834,357.536255 423.165009,357.536255 
	C423.230072,357.748566 423.295105,357.960876 423.360138,358.173187 
	C421.953491,358.582062 420.546814,358.990936 418.377258,359.621582 
	C418.377258,363.455292 418.441986,367.523529 418.319794,371.586090 
	C418.296814,372.350250 417.528168,373.091949 417.103638,373.844025 
	C416.730072,373.228424 416.356506,372.612793 415.972839,371.547485 
z"/>
<path fill="#C46389" opacity="1.000000" stroke="none" 
	d="
M354.861145,366.395386 
	C355.164246,366.919525 355.298126,367.735626 355.667053,368.761047 
	C355.611725,370.246735 355.642242,371.777557 354.908722,372.702545 
	C354.479553,373.243805 351.923096,373.036591 351.865143,372.795532 
	C350.632233,367.665863 349.618439,362.483521 348.561951,357.311462 
	C349.245239,357.160461 349.928528,357.009491 350.611847,356.858490 
	C351.415283,360.633240 352.218750,364.407959 353.014465,368.890289 
	C353.094910,370.096313 353.183014,370.594757 353.271118,371.093170 
	C353.442352,371.082458 353.613556,371.071747 353.784760,371.061035 
	C353.881561,370.472870 353.978333,369.884674 354.075104,369.296478 
	C354.280670,368.426788 354.486267,367.557068 354.861145,366.395386 
z"/>
<path fill="#C56787" opacity="1.000000" stroke="none" 
	d="
M439.891174,357.242004 
	C442.403259,361.130890 444.915344,365.019775 448.077026,368.953491 
	C449.120209,368.992493 449.513733,368.986664 449.907288,368.980835 
	C449.954041,369.440948 450.000824,369.901123 449.746552,370.848755 
	C448.995209,372.138245 448.544861,372.940216 448.094513,373.742157 
	C445.578552,369.856262 443.062592,365.970367 439.960693,361.802246 
	C439.546875,360.094025 439.719025,358.668030 439.891174,357.242004 
z"/>
<path fill="#C56C8B" opacity="1.000000" stroke="none" 
	d="
M547.611877,371.474121 
	C547.010803,369.258453 546.640137,366.558167 545.954041,363.940552 
	C545.629517,362.702362 544.701294,361.622406 544.010620,360.205505 
	C544.798889,358.980591 545.623169,358.020935 546.447510,357.061279 
	C546.895752,358.140808 547.685852,359.206787 547.729309,360.302368 
	C547.870728,363.870209 547.739380,367.448883 547.611877,371.474121 
z"/>
<path fill="#BC557A" opacity="1.000000" stroke="none" 
	d="
M429.249695,357.638916 
	C430.002411,357.750458 430.909821,358.221832 430.920074,358.712006 
	C431.025055,363.727722 430.984314,368.746460 430.984314,373.764374 
	C430.318848,373.777374 429.653412,373.790405 428.987946,373.803406 
	C428.987946,368.538086 428.987946,363.272797 429.249695,357.638916 
z"/>
<path fill="#AF5777" opacity="1.000000" stroke="none" 
	d="
M439.475159,357.180023 
	C439.719025,358.668030 439.546875,360.094025 439.607849,361.739319 
	C439.840942,365.887146 439.840942,369.815704 439.840942,373.744263 
	C439.111877,373.710510 438.382782,373.676788 437.653717,373.643066 
	C438.122223,368.134735 438.590698,362.626373 439.475159,357.180023 
z"/>
<path fill="#AF5777" opacity="1.000000" stroke="none" 
	d="
M449.953796,368.523193 
	C449.513733,368.986664 449.120209,368.992493 448.431366,368.996429 
	C448.136078,365.076935 448.136078,361.159363 448.136078,357.241760 
	C448.757507,357.238251 449.378906,357.234741 450.000336,357.231232 
	C450.000336,360.842682 450.000336,364.454132 449.953796,368.523193 
z"/>
<path fill="#AF5777" opacity="1.000000" stroke="none" 
	d="
M448.444214,373.834534 
	C448.544861,372.940216 448.995209,372.138245 449.679077,371.190796 
	C449.539734,372.005829 449.166840,372.966339 448.444214,373.834534 
z"/>
<path fill="#C56787" opacity="1.000000" stroke="none" 
	d="
M353.789551,369.308716 
	C353.978333,369.884674 353.881561,370.472870 353.784760,371.061035 
	C353.613556,371.071747 353.442352,371.082458 353.271118,371.093170 
	C353.183014,370.594757 353.094910,370.096313 353.011566,369.310364 
	C353.178925,369.122192 353.341461,369.221558 353.789551,369.308716 
z"/>
<path fill="#DA3D7F" opacity="1.000000" stroke="none" 
	d="
M472.009277,216.007111 
	C472.066986,215.763779 472.118042,215.515503 472.169067,215.267227 
	C472.260498,215.459854 472.351959,215.652481 472.219788,215.921097 
	C471.996155,215.997086 472.002655,216.002182 472.009277,216.007111 
z"/>
<path fill="#F9E9EE" opacity="1.000000" stroke="none" 
	d="
M423.273193,297.704773 
	C427.593842,291.953033 430.886627,291.920563 435.687988,296.154724 
	C437.764557,297.985931 441.082855,298.378235 443.783997,299.546906 
	C444.904327,300.031555 445.885681,300.837524 446.421417,301.175964 
	C441.573425,303.193756 437.450836,304.775787 433.443329,306.609283 
	C427.579376,309.292175 422.792511,305.385193 423.273193,297.704773 
z"/>
<path fill="#F7E3EC" opacity="1.000000" stroke="none" 
	d="
M383.605225,292.087036 
	C385.420441,293.543030 386.862457,294.907928 387.959290,295.946106 
	C380.154510,296.674225 372.758240,297.364227 365.051849,298.083160 
	C364.947815,297.587158 364.615509,296.003204 364.167053,293.865387 
	C370.660980,293.228607 376.946503,292.612305 383.605225,292.087036 
z"/>
<path fill="#F7E3EC" opacity="1.000000" stroke="none" 
	d="
M377.997803,307.770752 
	C379.313171,307.404846 380.479095,306.789093 381.211029,307.123413 
	C382.864197,307.878601 384.302917,309.103210 385.828857,310.136871 
	C385.116516,311.134552 384.486267,312.894867 383.675903,312.982086 
	C381.536682,313.212372 379.319336,312.717041 377.133057,312.510590 
	C377.305817,310.991119 377.478607,309.471680 377.997803,307.770752 
z"/>
<path fill="#FAECF0" opacity="1.000000" stroke="none" 
	d="
M638.877075,294.862091 
	C643.534241,298.905640 644.177856,303.173950 640.967102,306.567261 
	C637.991577,309.712067 633.325989,310.093689 631.008118,306.519440 
	C629.552979,304.275574 628.980408,300.427155 629.856262,297.950958 
	C631.102844,294.426331 634.573059,292.990845 638.877075,294.862091 
z"/>
<path fill="#FAECF0" opacity="1.000000" stroke="none" 
	d="
M696.953979,300.003113 
	C695.158752,305.528656 691.540649,308.426544 688.166016,306.544403 
	C685.934631,305.299866 683.386658,302.267883 683.388306,300.037994 
	C683.390015,297.812408 685.991333,294.525360 688.202820,293.690979 
	C690.075378,292.984406 693.147156,294.879547 695.424255,296.111298 
	C696.307312,296.588959 696.465393,298.406982 696.953979,300.003113 
z"/>
<path fill="#F3D8E6" opacity="1.000000" stroke="none" 
	d="
M549.088074,295.849854 
	C548.272766,294.532074 547.813599,293.349243 547.354431,292.166382 
	C548.572632,292.022064 549.854675,291.564209 550.996277,291.796417 
	C553.673523,292.340942 556.283630,293.215698 559.486816,294.115814 
	C559.604858,295.842224 559.758911,298.096283 559.940613,300.754456 
	C556.217224,299.062531 552.830750,297.523651 549.088074,295.849854 
z"/>
<path fill="#FAECF0" opacity="1.000000" stroke="none" 
	d="
M134.320602,286.401581 
	C135.490799,286.776978 136.871841,287.277954 136.881027,287.802948 
	C137.019150,295.698212 136.976730,303.596619 136.976730,310.750977 
	C134.626022,310.051178 131.122040,309.341187 127.933784,307.921997 
	C126.275612,307.183868 124.244301,305.338989 123.994659,303.741943 
	C123.208908,298.715179 123.186859,293.569031 122.836571,287.945801 
	C126.827888,287.437744 130.360626,286.988037 134.320602,286.401581 
z"/>
<path fill="#F7E3EC" opacity="1.000000" stroke="none" 
	d="
M208.448242,290.136658 
	C209.362793,289.650879 210.067703,289.038605 210.533066,289.185455 
	C212.987671,289.959930 215.488968,290.741516 217.684937,292.018066 
	C218.025650,292.216156 216.963226,296.301544 216.397400,296.339844 
	C213.350998,296.546112 210.256470,296.041962 207.178558,295.782990 
	C207.495071,293.975464 207.811569,292.167969 208.448242,290.136658 
z"/>
<path fill="#FDE5EC" opacity="1.000000" stroke="none" 
	d="
M506.171936,359.495819 
	C509.618622,362.213165 509.890594,365.671326 508.267273,368.681366 
	C507.262543,370.544403 504.538574,371.480286 501.494720,373.588470 
	C501.494720,367.687012 501.494720,363.628662 501.494720,359.024261 
	C503.002930,359.113556 504.411469,359.196930 506.171936,359.495819 
z"/>
</svg>